<svg width="540" height="74" viewBox="0 0 540 74" fill="none" xmlns="http://www.w3.org/2000/svg">
<mask id="path-1-outside-1_114_6" maskUnits="userSpaceOnUse" x="0.612061" y="0.139999" width="539" height="74" fill="black">
<rect fill="white" x="0.612061" y="0.139999" width="539" height="74"/>
<path d="M4.61206 69H11.1441V45.724L10.9601 39.1L19.4241 39.192H39.3881L47.9441 39.1L47.7601 45.724V69H54.2921V5.06H47.7601V26.68L47.9441 33.58L39.4801 33.488H19.4241L10.9601 33.58L11.1441 26.588V5.06H4.61206V69Z"/>
<path d="M98.8215 69.92C117.59 69.92 127.158 56.488 127.158 37.168C127.158 18.308 117.59 4.14 98.8215 4.14C80.0535 4.14 70.2095 18.308 70.2095 37.168C70.2095 56.488 80.0535 69.92 98.8215 69.92ZM98.8215 64.216C84.0095 64.216 76.8335 52.716 76.8335 37.076C76.8335 21.988 84.0095 9.844 98.8215 9.844C113.634 9.844 120.534 21.988 120.534 37.076C120.534 52.716 113.634 64.216 98.8215 64.216Z"/>
<path d="M160.807 69H167.247V21.344L167.155 10.856L175.619 10.948H191.443V5.06H136.611V10.948H152.435L160.899 10.856L160.807 21.344V69Z"/>
<path d="M228.922 69.92C243.642 69.92 252.842 62.468 252.842 51.612C252.842 42.044 246.678 36.616 234.718 34.776L222.39 32.936C214.018 31.74 209.97 28.428 209.97 22.448C209.97 14.996 216.686 9.936 226.254 9.936C235.454 9.936 242.17 14.72 243.55 25.484L249.714 25.024C248.058 10.764 238.766 4.14 226.254 4.14C213.098 4.14 203.53 11.776 203.53 22.448C203.53 31.74 210.062 36.984 221.654 38.732L233.706 40.572C242.998 41.952 246.402 45.172 246.402 51.704C246.402 59.156 239.87 64.124 228.83 64.124C217.974 64.124 209.786 58.512 208.038 49.036L201.322 49.772C203.714 62.652 214.478 69.92 228.922 69.92Z"/>
<path d="M267.919 69H274.359V23L273.899 16.1H274.819L277.027 23L298.371 69H304.903L326.247 23L328.547 16.1H329.375L328.915 23V69H335.355V5.06H327.811L304.351 56.028L302.051 62.836H301.223L299.015 56.028L275.555 5.06H267.919V69Z"/>
<path d="M379.917 69.92C398.685 69.92 408.253 56.488 408.253 37.168C408.253 18.308 398.685 4.14 379.917 4.14C361.149 4.14 351.305 18.308 351.305 37.168C351.305 56.488 361.149 69.92 379.917 69.92ZM379.917 64.216C365.105 64.216 357.929 52.716 357.929 37.076C357.929 21.988 365.105 9.844 379.917 9.844C394.729 9.844 401.629 21.988 401.629 37.076C401.629 52.716 394.729 64.216 379.917 64.216Z"/>
<path d="M423.83 69H430.362V46.828L442.69 35.88L468.726 69H477.006L447.474 31.648L477.65 5.06H468.726L435.238 34.684L431.006 39.836H429.81L430.362 32.66V5.06H423.83V69Z"/>
<path d="M490.645 69H535.541V63.296L496.993 63.388L497.177 54.464V47.288L496.993 38.824L531.125 38.916V33.12L496.993 33.212L497.177 24.748V19.78L496.993 10.764L535.541 10.856V5.06H490.645V69Z"/>
</mask>
<path d="M4.61206 69H11.1441V45.724L10.9601 39.1L19.4241 39.192H39.3881L47.9441 39.1L47.7601 45.724V69H54.2921V5.06H47.7601V26.68L47.9441 33.58L39.4801 33.488H19.4241L10.9601 33.58L11.1441 26.588V5.06H4.61206V69Z" stroke="white" stroke-width="8" mask="url(#path-1-outside-1_114_6)"/>
<path d="M98.8215 69.92C117.59 69.92 127.158 56.488 127.158 37.168C127.158 18.308 117.59 4.14 98.8215 4.14C80.0535 4.14 70.2095 18.308 70.2095 37.168C70.2095 56.488 80.0535 69.92 98.8215 69.92ZM98.8215 64.216C84.0095 64.216 76.8335 52.716 76.8335 37.076C76.8335 21.988 84.0095 9.844 98.8215 9.844C113.634 9.844 120.534 21.988 120.534 37.076C120.534 52.716 113.634 64.216 98.8215 64.216Z" stroke="white" stroke-width="8" mask="url(#path-1-outside-1_114_6)"/>
<path d="M160.807 69H167.247V21.344L167.155 10.856L175.619 10.948H191.443V5.06H136.611V10.948H152.435L160.899 10.856L160.807 21.344V69Z" stroke="white" stroke-width="8" mask="url(#path-1-outside-1_114_6)"/>
<path d="M228.922 69.92C243.642 69.92 252.842 62.468 252.842 51.612C252.842 42.044 246.678 36.616 234.718 34.776L222.39 32.936C214.018 31.74 209.97 28.428 209.97 22.448C209.97 14.996 216.686 9.936 226.254 9.936C235.454 9.936 242.17 14.72 243.55 25.484L249.714 25.024C248.058 10.764 238.766 4.14 226.254 4.14C213.098 4.14 203.53 11.776 203.53 22.448C203.53 31.74 210.062 36.984 221.654 38.732L233.706 40.572C242.998 41.952 246.402 45.172 246.402 51.704C246.402 59.156 239.87 64.124 228.83 64.124C217.974 64.124 209.786 58.512 208.038 49.036L201.322 49.772C203.714 62.652 214.478 69.92 228.922 69.92Z" stroke="white" stroke-width="8" mask="url(#path-1-outside-1_114_6)"/>
<path d="M267.919 69H274.359V23L273.899 16.1H274.819L277.027 23L298.371 69H304.903L326.247 23L328.547 16.1H329.375L328.915 23V69H335.355V5.06H327.811L304.351 56.028L302.051 62.836H301.223L299.015 56.028L275.555 5.06H267.919V69Z" stroke="white" stroke-width="8" mask="url(#path-1-outside-1_114_6)"/>
<path d="M379.917 69.92C398.685 69.92 408.253 56.488 408.253 37.168C408.253 18.308 398.685 4.14 379.917 4.14C361.149 4.14 351.305 18.308 351.305 37.168C351.305 56.488 361.149 69.92 379.917 69.92ZM379.917 64.216C365.105 64.216 357.929 52.716 357.929 37.076C357.929 21.988 365.105 9.844 379.917 9.844C394.729 9.844 401.629 21.988 401.629 37.076C401.629 52.716 394.729 64.216 379.917 64.216Z" stroke="white" stroke-width="8" mask="url(#path-1-outside-1_114_6)"/>
<path d="M423.83 69H430.362V46.828L442.69 35.88L468.726 69H477.006L447.474 31.648L477.65 5.06H468.726L435.238 34.684L431.006 39.836H429.81L430.362 32.66V5.06H423.83V69Z" stroke="white" stroke-width="8" mask="url(#path-1-outside-1_114_6)"/>
<path d="M490.645 69H535.541V63.296L496.993 63.388L497.177 54.464V47.288L496.993 38.824L531.125 38.916V33.12L496.993 33.212L497.177 24.748V19.78L496.993 10.764L535.541 10.856V5.06H490.645V69Z" stroke="white" stroke-width="8" mask="url(#path-1-outside-1_114_6)"/>
</svg>
